<?xml version="1.0" encoding="UTF-8"?><svg xmlns:svg="http://www.w3.org/2000/svg" xmlns="http://www.w3.org/2000/svg"
   version="1.1"
   viewBox="0 0 493.88892 493.88892"
   height="493.88892mm"
   width="493.88892mm"><g transform="translate(54.932552,13.444458)"><path
       d="M 83.356346,414.53647 49.313288,394.8744 v -39.84245 -39.84244 l 34.043058,-19.66208 c 18.723684,-10.81414 34.209124,-19.66928 34.412104,-19.67809 0.20298,-0.009 15.76048,8.8635 34.57222,19.71622 l 34.20318,19.73222 v 39.73417 39.73418 l -34.20318,19.73224 c -18.81174,10.85271 -34.36924,19.725 -34.57222,19.71618 -0.20298,-0.009 -15.68842,-8.86393 -34.412104,-19.67808 z m 143.227784,0 -34.04306,-19.66207 v -39.84245 -39.84244 l 34.04306,-19.66208 c 18.72368,-10.81414 34.20913,-19.66928 34.4121,-19.67809 0.20298,-0.009 15.76048,8.8635 34.57223,19.71622 l 34.20318,19.73222 v 39.73417 39.73418 l -34.20318,19.73224 c -18.81175,10.85271 -34.36925,19.725 -34.57223,19.71618 -0.20297,-0.009 -15.68842,-8.86393 -34.4121,-19.67808 z M 11.742452,291.41702 -22.300606,271.75494 V 231.9125 192.07006 l 34.043058,-19.66208 c 18.723682,-10.81414 34.209128,-19.66928 34.412102,-19.67809 0.202978,-0.009 15.760479,8.86349 34.572225,19.71621 l 34.203181,19.73222 v 39.73418 39.73418 L 80.726779,291.3789 c -18.811746,10.85272 -34.369247,19.72501 -34.572225,19.71621 -0.202974,-0.009 -15.68842,-8.86394 -34.412102,-19.67809 z m 143.227788,0 -34.04306,-19.66208 V 231.9125 192.07006 l 34.04306,-19.66208 c 18.72368,-10.81414 34.20913,-19.66928 34.4121,-19.67809 0.20298,-0.009 15.76048,8.86349 34.57223,19.71621 l 34.20318,19.73222 v 39.73418 39.73418 l -34.20318,19.73222 c -18.81175,10.85272 -34.36925,19.72501 -34.57223,19.71621 -0.20297,-0.009 -15.68842,-8.86394 -34.4121,-19.67809 z m 143.22779,0 -34.04306,-19.66208 V 231.9125 192.07006 l 34.04306,-19.66208 c 18.72368,-10.81414 34.20914,-19.66928 34.41209,-19.67809 0.20299,-0.009 15.76049,8.86349 34.57223,19.71621 l 34.20318,19.73222 v 39.73418 39.73418 l -34.20318,19.73222 c -18.81174,10.85272 -34.36924,19.72501 -34.57223,19.71621 -0.20295,-0.009 -15.68841,-8.86394 -34.41209,-19.67809 z M 83.356346,168.29757 49.313288,148.63549 V 108.79305 68.950607 L 83.356346,49.288529 c 18.723684,-10.814145 34.209124,-19.669285 34.412104,-19.67809 0.20298,-0.0088 15.76048,8.863493 34.57222,19.716212 l 34.20318,19.73222 v 39.734179 39.73418 l -34.20318,19.73222 c -18.81174,10.85272 -34.36924,19.72501 -34.57222,19.71621 -0.20298,-0.009 -15.68842,-8.86394 -34.412104,-19.67809 z m 143.227784,0 -34.04306,-19.66208 V 108.79305 68.950607 l 34.04306,-19.662078 c 18.72368,-10.814145 34.20913,-19.669285 34.4121,-19.67809 0.20298,-0.0088 15.76048,8.863493 34.57223,19.716212 l 34.20318,19.73222 v 39.734179 39.73418 l -34.20318,19.73222 c -18.81175,10.85272 -34.36925,19.72501 -34.57223,19.71621 -0.20297,-0.009 -15.68842,-8.86394 -34.4121,-19.67809 z"
       style="fill:#e88c8d" /><path
       d="M 83.356346,414.53647 49.313288,394.8744 v -39.84245 -39.84244 l 34.043058,-19.66208 c 18.723684,-10.81414 34.209124,-19.66928 34.412104,-19.67809 0.20298,-0.009 15.76048,8.8635 34.57222,19.71622 l 34.20318,19.73222 v 39.73417 39.73418 l -34.20318,19.73224 c -18.81174,10.85271 -34.36924,19.725 -34.57222,19.71618 -0.20298,-0.009 -15.68842,-8.86393 -34.412104,-19.67808 z m 143.227784,0 -34.04306,-19.66207 v -39.84245 -39.84244 l 34.04306,-19.66208 c 18.72368,-10.81414 34.20913,-19.66928 34.4121,-19.67809 0.20298,-0.009 15.76048,8.8635 34.57223,19.71622 l 34.20318,19.73222 v 39.73417 39.73418 l -34.20318,19.73224 c -18.81175,10.85271 -34.36925,19.725 -34.57223,19.71618 -0.20297,-0.009 -15.68842,-8.86393 -34.4121,-19.67808 z M 11.742452,291.41702 -22.300606,271.75494 V 231.9125 192.07006 l 34.043058,-19.66208 c 18.723682,-10.81414 34.209128,-19.66928 34.412102,-19.67809 0.202978,-0.009 15.760479,8.86349 34.572225,19.71621 l 34.203181,19.73222 v 39.73418 39.73418 L 80.726779,291.3789 c -18.811746,10.85272 -34.369247,19.72501 -34.572225,19.71621 -0.202974,-0.009 -15.68842,-8.86394 -34.412102,-19.67809 z m 143.227788,0 -34.04306,-19.66208 V 231.9125 192.07006 l 34.04306,-19.66208 c 18.72368,-10.81414 34.20913,-19.66928 34.4121,-19.67809 0.20298,-0.009 15.76048,8.86349 34.57223,19.71621 l 34.20318,19.73222 v 39.73418 39.73418 l -34.20318,19.73222 c -18.81175,10.85272 -34.36925,19.72501 -34.57223,19.71621 -0.20297,-0.009 -15.68842,-8.86394 -34.4121,-19.67809 z m 143.22779,0 -34.04306,-19.66208 V 231.9125 192.07006 l 34.04306,-19.66208 c 18.72368,-10.81414 34.20914,-19.66928 34.41209,-19.67809 0.20299,-0.009 15.76049,8.86349 34.57223,19.71621 l 34.20318,19.73222 v 39.73418 39.73418 l -34.20318,19.73222 c -18.81174,10.85272 -34.36924,19.72501 -34.57223,19.71621 -0.20295,-0.009 -15.68841,-8.86394 -34.41209,-19.67809 z M 83.356346,168.29757 49.313288,148.63549 V 108.79305 68.950607 L 83.356346,49.288529 c 18.723684,-10.814145 34.209124,-19.669285 34.412104,-19.67809 0.20298,-0.0088 15.76048,8.863493 34.57222,19.716212 l 34.20318,19.73222 v 39.734179 39.73418 l -34.20318,19.73222 c -18.81174,10.85272 -34.36924,19.72501 -34.57222,19.71621 -0.20298,-0.009 -15.68842,-8.86394 -34.412104,-19.67809 z"
       style="fill:#e87a7c" /><path
       d="M 83.356346,414.53647 49.313288,394.8744 v -39.84245 -39.84244 l 34.043058,-19.66208 c 18.723684,-10.81414 34.209124,-19.66928 34.412104,-19.67809 0.20298,-0.009 15.76048,8.8635 34.57222,19.71622 l 34.20318,19.73222 v 39.73417 39.73418 l -34.20318,19.73224 c -18.81174,10.85271 -34.36924,19.725 -34.57222,19.71618 -0.20298,-0.009 -15.68842,-8.86393 -34.412104,-19.67808 z m 143.227784,0 -34.04306,-19.66207 v -39.84245 -39.84244 l 34.04306,-19.66208 c 18.72368,-10.81414 34.20913,-19.66928 34.4121,-19.67809 0.20298,-0.009 15.76048,8.8635 34.57223,19.71622 l 34.20318,19.73222 v 39.73417 39.73418 l -34.20318,19.73224 c -18.81175,10.85271 -34.36925,19.725 -34.57223,19.71618 -0.20297,-0.009 -15.68842,-8.86393 -34.4121,-19.67808 z M 11.742452,291.41702 -22.300606,271.75494 V 231.9125 192.07006 l 34.043058,-19.66208 c 18.723682,-10.81414 34.209128,-19.66928 34.412102,-19.67809 0.202978,-0.009 15.760479,8.86349 34.572225,19.71621 l 34.203181,19.73222 v 39.73418 39.73418 L 80.726779,291.3789 c -18.811746,10.85272 -34.369247,19.72501 -34.572225,19.71621 -0.202974,-0.009 -15.68842,-8.86394 -34.412102,-19.67809 z m 143.227788,0 -34.04306,-19.66208 V 231.9125 192.07006 l 34.04306,-19.66208 c 18.72368,-10.81414 34.20913,-19.66928 34.4121,-19.67809 0.20298,-0.009 15.76048,8.86349 34.57223,19.71621 l 34.20318,19.73222 v 39.73418 39.73418 l -34.20318,19.73222 c -18.81175,10.85272 -34.36925,19.72501 -34.57223,19.71621 -0.20297,-0.009 -15.68842,-8.86394 -34.4121,-19.67809 z M 83.356346,168.29757 49.313288,148.63549 V 108.79305 68.950607 L 83.356346,49.288529 c 18.723684,-10.814145 34.209124,-19.669285 34.412104,-19.67809 0.20298,-0.0088 15.76048,8.863493 34.57222,19.716212 l 34.20318,19.73222 v 39.734179 39.73418 l -34.20318,19.73222 c -18.81174,10.85272 -34.36924,19.72501 -34.57222,19.71621 -0.20298,-0.009 -15.68842,-8.86394 -34.412104,-19.67809 z"
       style="fill:#e8696c" /><path
       d="M 83.356346,414.53647 49.313288,394.8744 v -39.84245 -39.84244 l 34.043058,-19.66208 c 18.723684,-10.81414 34.209124,-19.66928 34.412104,-19.67809 0.20298,-0.009 15.76048,8.8635 34.57222,19.71622 l 34.20318,19.73222 v 39.73417 39.73418 l -34.20318,19.73224 c -18.81174,10.85271 -34.36924,19.725 -34.57222,19.71618 -0.20298,-0.009 -15.68842,-8.86393 -34.412104,-19.67808 z M 11.742452,291.41702 -22.300606,271.75494 V 231.9125 192.07006 l 34.043058,-19.66208 c 18.723682,-10.81414 34.209128,-19.66928 34.412102,-19.67809 0.202978,-0.009 15.760479,8.86349 34.572225,19.71621 l 34.203181,19.73222 v 39.73418 39.73418 L 80.726779,291.3789 c -18.811746,10.85272 -34.369247,19.72501 -34.572225,19.71621 -0.202974,-0.009 -15.68842,-8.86394 -34.412102,-19.67809 z m 143.227788,0 -34.04306,-19.66208 V 231.9125 192.07006 l 34.04306,-19.66208 c 18.72368,-10.81414 34.20913,-19.66928 34.4121,-19.67809 0.20298,-0.009 15.76048,8.86349 34.57223,19.71621 l 34.20318,19.73222 v 39.73418 39.73418 l -34.20318,19.73222 c -18.81175,10.85272 -34.36925,19.72501 -34.57223,19.71621 -0.20297,-0.009 -15.68842,-8.86394 -34.4121,-19.67809 z M 83.356346,168.29757 49.313288,148.63549 V 108.79305 68.950607 L 83.356346,49.288529 c 18.723684,-10.814145 34.209124,-19.669285 34.412104,-19.67809 0.20298,-0.0088 15.76048,8.863493 34.57222,19.716212 l 34.20318,19.73222 v 39.734179 39.73418 l -34.20318,19.73222 c -18.81174,10.85272 -34.36924,19.72501 -34.57222,19.71621 -0.20298,-0.009 -15.68842,-8.86394 -34.412104,-19.67809 z"
       style="fill:#e85a5e" /><path
       d="M 11.742452,291.41702 -22.300606,271.75494 V 231.9125 192.07006 l 34.043058,-19.66208 c 18.723682,-10.81414 34.209128,-19.66928 34.412102,-19.67809 0.202978,-0.009 15.760479,8.86349 34.572225,19.71621 l 34.203181,19.73222 v 39.73418 39.73418 L 80.726779,291.3789 c -18.811746,10.85272 -34.369247,19.72501 -34.572225,19.71621 -0.202974,-0.009 -15.68842,-8.86394 -34.412102,-19.67809 z m 143.227788,0 -34.04306,-19.66208 V 231.9125 192.07006 l 34.04306,-19.66208 c 18.72368,-10.81414 34.20913,-19.66928 34.4121,-19.67809 0.20298,-0.009 15.76048,8.86349 34.57223,19.71621 l 34.20318,19.73222 v 39.73418 39.73418 l -34.20318,19.73222 c -18.81175,10.85272 -34.36925,19.72501 -34.57223,19.71621 -0.20297,-0.009 -15.68842,-8.86394 -34.4121,-19.67809 z M 83.356346,168.29757 49.313288,148.63549 V 108.79305 68.950607 L 83.356346,49.288529 c 18.723684,-10.814145 34.209124,-19.669285 34.412104,-19.67809 0.20298,-0.0088 15.76048,8.863493 34.57222,19.716212 l 34.20318,19.73222 v 39.734179 39.73418 l -34.20318,19.73222 c -18.81174,10.85272 -34.36924,19.72501 -34.57222,19.71621 -0.20298,-0.009 -15.68842,-8.86394 -34.412104,-19.67809 z"
       style="fill:#e84b51" /><path
       d="M 154.97024,291.41702 120.92718,271.75494 V 231.9125 192.07006 l 34.04306,-19.66208 c 18.72368,-10.81414 34.20913,-19.66928 34.4121,-19.67809 0.20298,-0.009 15.76048,8.86349 34.57223,19.71621 l 34.20318,19.73222 v 39.73418 39.73418 l -34.20318,19.73222 c -18.81175,10.85272 -34.36925,19.72501 -34.57223,19.71621 -0.20297,-0.009 -15.68842,-8.86394 -34.4121,-19.67809 z M 83.356346,168.29757 49.313288,148.63549 V 108.79305 68.950607 L 83.356346,49.288529 c 18.723684,-10.814145 34.209124,-19.669285 34.412104,-19.67809 0.20298,-0.0088 15.76048,8.863493 34.57222,19.716212 l 34.20318,19.73222 v 39.734179 39.73418 l -34.20318,19.73222 c -18.81174,10.85272 -34.36924,19.72501 -34.57222,19.71621 -0.20298,-0.009 -15.68842,-8.86394 -34.412104,-19.67809 z"
       style="fill:#e83e45" /><path
       d="M 154.97024,291.41702 120.92718,271.75494 V 231.9125 192.07006 l 34.04306,-19.66208 c 18.72368,-10.81414 34.20913,-19.66928 34.4121,-19.67809 0.20298,-0.009 15.76048,8.86349 34.57223,19.71621 l 34.20318,19.73222 v 39.73418 39.73418 l -34.20318,19.73222 c -18.81175,10.85272 -34.36925,19.72501 -34.57223,19.71621 -0.20297,-0.009 -15.68842,-8.86394 -34.4121,-19.67809 z"
       style="fill:#e41a23" /></g></svg>
